{
    "asset" : {
        "generator" : "Khronos glTF Blender I/O v0.9.36",
        "version" : "2.0"
    },
    "scene" : 0,
    "scenes" : [
        {
            "name" : "Scene",
            "nodes" : [
                0,
                1,
                8
            ]
        }
    ],
    "nodes" : [
        {
            "name" : "Light",
            "rotation" : [
                0.16907575726509094,
                0.7558803558349609,
                -0.27217137813568115,
                0.570947527885437
            ],
            "translation" : [
                4.076245307922363,
                5.903861999511719,
                -1.0054539442062378
            ]
        },
        {
            "name" : "Camera",
            "rotation" : [
                0.483536034822464,
                0.33687159419059753,
                -0.20870360732078552,
                0.7804827094078064
            ],
            "translation" : [
                7.358891487121582,
                4.958309173583984,
                6.925790786743164
            ]
        },
        {
            "name" : "Bone005",
            "rotation" : [
                -4.4853013582988113e-14,
                1.6653339016630244e-15,
                3.725290742551124e-09,
                1
            ],
            "translation" : [
                99.04633331298828,
                -4.5299530029296875e-05,
                -1.3362253412196878e-05
            ]
        },
        {
            "children" : [
                2
            ],
            "name" : "Bone004",
            "rotation" : [
                -4.110753071273621e-09,
                2.855098601983741e-09,
                -0.02800501510500908,
                0.9996078014373779
            ],
            "translation" : [
                89.19076538085938,
                -1.59169048856711e-05,
                -1.3346882042242214e-05
            ]
        },
        {
            "children" : [
                3
            ],
            "name" : "Bone003",
            "rotation" : [
                6.943672858916727e-10,
                -5.446632656003203e-08,
                0.007485745474696159,
                0.9999719858169556
            ],
            "scale" : [
                1.0000001192092896,
                1.0000001192092896,
                1
            ],
            "translation" : [
                177.45391845703125,
                -1.5040297512314282e-05,
                -6.796852176194079e-06
            ]
        },
        {
            "children" : [
                4
            ],
            "name" : "Bone002",
            "rotation" : [
                -4.769001975546416e-07,
                2.625817074886072e-08,
                0.013439447619020939,
                0.9999096989631653
            ],
            "scale" : [
                0.9999999403953552,
                0.9999999403953552,
                1
            ],
            "translation" : [
                163.22789001464844,
                -4.6027002099435776e-05,
                -1.2026531294395681e-05
            ]
        },
        {
            "children" : [
                5
            ],
            "name" : "Bone001",
            "rotation" : [
                4.4104149310442153e-07,
                3.4918539881800825e-07,
                0.6993381381034851,
                0.7147909998893738
            ],
            "translation" : [
                -2.045546770095825,
                0.3024740517139435,
                1.3221278294395233e-08
            ]
        },
        {
            "mesh" : 0,
            "name" : "Cylinder001",
            "skin" : 0
        },
        {
            "children" : [
                7,
                6
            ],
            "name" : "Armature",
            "scale" : [
                0.009999999776482582,
                0.009999999776482582,
                0.009999999776482582
            ]
        }
    ],
    "animations" : [
        {
            "channels" : [
                {
                    "sampler" : 0,
                    "target" : {
                        "node" : 6,
                        "path" : "translation"
                    }
                },
                {
                    "sampler" : 1,
                    "target" : {
                        "node" : 6,
                        "path" : "rotation"
                    }
                },
                {
                    "sampler" : 2,
                    "target" : {
                        "node" : 6,
                        "path" : "scale"
                    }
                },
                {
                    "sampler" : 3,
                    "target" : {
                        "node" : 5,
                        "path" : "translation"
                    }
                },
                {
                    "sampler" : 4,
                    "target" : {
                        "node" : 5,
                        "path" : "rotation"
                    }
                },
                {
                    "sampler" : 5,
                    "target" : {
                        "node" : 5,
                        "path" : "scale"
                    }
                },
                {
                    "sampler" : 6,
                    "target" : {
                        "node" : 4,
                        "path" : "translation"
                    }
                },
                {
                    "sampler" : 7,
                    "target" : {
                        "node" : 4,
                        "path" : "rotation"
                    }
                },
                {
                    "sampler" : 8,
                    "target" : {
                        "node" : 4,
                        "path" : "scale"
                    }
                },
                {
                    "sampler" : 9,
                    "target" : {
                        "node" : 3,
                        "path" : "translation"
                    }
                },
                {
                    "sampler" : 10,
                    "target" : {
                        "node" : 3,
                        "path" : "rotation"
                    }
                },
                {
                    "sampler" : 11,
                    "target" : {
                        "node" : 3,
                        "path" : "scale"
                    }
                },
                {
                    "sampler" : 12,
                    "target" : {
                        "node" : 2,
                        "path" : "translation"
                    }
                },
                {
                    "sampler" : 13,
                    "target" : {
                        "node" : 2,
                        "path" : "rotation"
                    }
                },
                {
                    "sampler" : 14,
                    "target" : {
                        "node" : 2,
                        "path" : "scale"
                    }
                }
            ],
            "name" : "Armature|Take 001|BaseLayer",
            "samplers" : [
                {
                    "input" : 7,
                    "interpolation" : "LINEAR",
                    "output" : 8
                },
                {
                    "input" : 7,
                    "interpolation" : "LINEAR",
                    "output" : 9
                },
                {
                    "input" : 7,
                    "interpolation" : "LINEAR",
                    "output" : 10
                },
                {
                    "input" : 7,
                    "interpolation" : "LINEAR",
                    "output" : 11
                },
                {
                    "input" : 7,
                    "interpolation" : "LINEAR",
                    "output" : 12
                },
                {
                    "input" : 7,
                    "interpolation" : "LINEAR",
                    "output" : 13
                },
                {
                    "input" : 7,
                    "interpolation" : "LINEAR",
                    "output" : 14
                },
                {
                    "input" : 7,
                    "interpolation" : "LINEAR",
                    "output" : 15
                },
                {
                    "input" : 7,
                    "interpolation" : "LINEAR",
                    "output" : 16
                },
                {
                    "input" : 17,
                    "interpolation" : "LINEAR",
                    "output" : 18
                },
                {
                    "input" : 17,
                    "interpolation" : "LINEAR",
                    "output" : 19
                },
                {
                    "input" : 17,
                    "interpolation" : "LINEAR",
                    "output" : 20
                },
                {
                    "input" : 21,
                    "interpolation" : "LINEAR",
                    "output" : 22
                },
                {
                    "input" : 21,
                    "interpolation" : "LINEAR",
                    "output" : 23
                },
                {
                    "input" : 21,
                    "interpolation" : "LINEAR",
                    "output" : 24
                }
            ]
        }
    ],
    "meshes" : [
        {
            "name" : "Mesh",
            "primitives" : [
                {
                    "attributes" : {
                        "POSITION" : 0,
                        "NORMAL" : 1,
                        "TEXCOORD_0" : 2,
                        "JOINTS_0" : 3,
                        "WEIGHTS_0" : 4
                    },
                    "indices" : 5
                }
            ]
        }
    ],
    "skins" : [
        {
            "inverseBindMatrices" : 6,
            "joints" : [
                6,
                5,
                4,
                3,
                2
            ],
            "name" : "Armature"
        }
    ],
    "accessors" : [
        {
            "bufferView" : 0,
            "componentType" : 5126,
            "count" : 1005,
            "max" : [
                31.31159019470215,
                527.5977172851562,
                30.835899353027344
            ],
            "min" : [
                -31.31159019470215,
                0,
                -30.83589744567871
            ],
            "type" : "VEC3"
        },
        {
            "bufferView" : 1,
            "componentType" : 5126,
            "count" : 1005,
            "type" : "VEC3"
        },
        {
            "bufferView" : 2,
            "componentType" : 5126,
            "count" : 1005,
            "type" : "VEC2"
        },
        {
            "bufferView" : 3,
            "componentType" : 5123,
            "count" : 1005,
            "type" : "VEC4"
        },
        {
            "bufferView" : 4,
            "componentType" : 5126,
            "count" : 1005,
            "type" : "VEC4"
        },
        {
            "bufferView" : 5,
            "componentType" : 5123,
            "count" : 5496,
            "type" : "SCALAR"
        },
        {
            "bufferView" : 6,
            "componentType" : 5126,
            "count" : 5,
            "type" : "MAT4"
        },
        {
            "bufferView" : 7,
            "componentType" : 5126,
            "count" : 4,
            "max" : [
                1.5333333333333334
            ],
            "min" : [
                0.03333333333333333
            ],
            "type" : "SCALAR"
        },
        {
            "bufferView" : 8,
            "componentType" : 5126,
            "count" : 4,
            "type" : "VEC3"
        },
        {
            "bufferView" : 9,
            "componentType" : 5126,
            "count" : 4,
            "type" : "VEC4"
        },
        {
            "bufferView" : 10,
            "componentType" : 5126,
            "count" : 4,
            "type" : "VEC3"
        },
        {
            "bufferView" : 11,
            "componentType" : 5126,
            "count" : 4,
            "type" : "VEC3"
        },
        {
            "bufferView" : 12,
            "componentType" : 5126,
            "count" : 4,
            "type" : "VEC4"
        },
        {
            "bufferView" : 13,
            "componentType" : 5126,
            "count" : 4,
            "type" : "VEC3"
        },
        {
            "bufferView" : 14,
            "componentType" : 5126,
            "count" : 4,
            "type" : "VEC3"
        },
        {
            "bufferView" : 15,
            "componentType" : 5126,
            "count" : 4,
            "type" : "VEC4"
        },
        {
            "bufferView" : 16,
            "componentType" : 5126,
            "count" : 4,
            "type" : "VEC3"
        },
        {
            "bufferView" : 17,
            "componentType" : 5126,
            "count" : 5,
            "max" : [
                2.033333333333333
            ],
            "min" : [
                0.03333333333333333
            ],
            "type" : "SCALAR"
        },
        {
            "bufferView" : 18,
            "componentType" : 5126,
            "count" : 5,
            "type" : "VEC3"
        },
        {
            "bufferView" : 19,
            "componentType" : 5126,
            "count" : 5,
            "type" : "VEC4"
        },
        {
            "bufferView" : 20,
            "componentType" : 5126,
            "count" : 5,
            "type" : "VEC3"
        },
        {
            "bufferView" : 21,
            "componentType" : 5126,
            "count" : 2,
            "max" : [
                1.0333333333333334
            ],
            "min" : [
                0.03333333333333333
            ],
            "type" : "SCALAR"
        },
        {
            "bufferView" : 22,
            "componentType" : 5126,
            "count" : 2,
            "type" : "VEC3"
        },
        {
            "bufferView" : 23,
            "componentType" : 5126,
            "count" : 2,
            "type" : "VEC4"
        },
        {
            "bufferView" : 24,
            "componentType" : 5126,
            "count" : 2,
            "type" : "VEC3"
        }
    ],
    "bufferViews" : [
        {
            "buffer" : 0,
            "byteLength" : 12060,
            "byteOffset" : 0
        },
        {
            "buffer" : 0,
            "byteLength" : 12060,
            "byteOffset" : 12060
        },
        {
            "buffer" : 0,
            "byteLength" : 8040,
            "byteOffset" : 24120
        },
        {
            "buffer" : 0,
            "byteLength" : 8040,
            "byteOffset" : 32160
        },
        {
            "buffer" : 0,
            "byteLength" : 16080,
            "byteOffset" : 40200
        },
        {
            "buffer" : 0,
            "byteLength" : 10992,
            "byteOffset" : 56280
        },
        {
            "buffer" : 0,
            "byteLength" : 320,
            "byteOffset" : 67272
        },
        {
            "buffer" : 0,
            "byteLength" : 16,
            "byteOffset" : 67592
        },
        {
            "buffer" : 0,
            "byteLength" : 48,
            "byteOffset" : 67608
        },
        {
            "buffer" : 0,
            "byteLength" : 64,
            "byteOffset" : 67656
        },
        {
            "buffer" : 0,
            "byteLength" : 48,
            "byteOffset" : 67720
        },
        {
            "buffer" : 0,
            "byteLength" : 48,
            "byteOffset" : 67768
        },
        {
            "buffer" : 0,
            "byteLength" : 64,
            "byteOffset" : 67816
        },
        {
            "buffer" : 0,
            "byteLength" : 48,
            "byteOffset" : 67880
        },
        {
            "buffer" : 0,
            "byteLength" : 48,
            "byteOffset" : 67928
        },
        {
            "buffer" : 0,
            "byteLength" : 64,
            "byteOffset" : 67976
        },
        {
            "buffer" : 0,
            "byteLength" : 48,
            "byteOffset" : 68040
        },
        {
            "buffer" : 0,
            "byteLength" : 20,
            "byteOffset" : 68088
        },
        {
            "buffer" : 0,
            "byteLength" : 60,
            "byteOffset" : 68108
        },
        {
            "buffer" : 0,
            "byteLength" : 80,
            "byteOffset" : 68168
        },
        {
            "buffer" : 0,
            "byteLength" : 60,
            "byteOffset" : 68248
        },
        {
            "buffer" : 0,
            "byteLength" : 8,
            "byteOffset" : 68308
        },
        {
            "buffer" : 0,
            "byteLength" : 24,
            "byteOffset" : 68316
        },
        {
            "buffer" : 0,
            "byteLength" : 32,
            "byteOffset" : 68340
        },
        {
            "buffer" : 0,
            "byteLength" : 24,
            "byteOffset" : 68372
        }
    ],
    "buffers" : [
        {
            "byteLength" : 68396,
            "uri" : "data:application/octet-stream;base64,"
        }
    ]
}
