{
    "asset" : {
        "generator" : "Khronos glTF Blender I/O v0.9.11",
        "version" : "2.0"
    },
    "scene" : 0,
    "scenes" : [
        {
            "name" : "Scene",
            "nodes" : [
                0
            ]
        }
    ],
    "nodes" : [
        {
            "mesh" : 0,
            "name" : "miku"
        }
    ],
    "meshes" : [
        {
            "name" : "miku",
            "primitives" : [
                {
                    "attributes" : {
                        "POSITION" : 0,
                        "NORMAL" : 1,
                        "TEXCOORD_0" : 2
                    },
                    "indices" : 3
                }
            ]
        }
    ],
    "accessors" : [
        {
            "bufferView" : 0,
            "componentType" : 5126,
            "count" : 2371,
            "max" : [
                0.7707260251045227,
                0.9917270541191101,
                0.44935309886932373
            ],
            "min" : [
                -0.8770849704742432,
                -0.9967900514602661,
                -0.6580200791358948
            ],
            "type" : "VEC3"
        },
        {
            "bufferView" : 1,
            "componentType" : 5126,
            "count" : 2371,
            "type" : "VEC3"
        },
        {
            "bufferView" : 2,
            "componentType" : 5126,
            "count" : 2371,
            "type" : "VEC2"
        },
        {
            "bufferView" : 3,
            "componentType" : 5123,
            "count" : 4215,
            "type" : "SCALAR"
        }
    ],
    "bufferViews" : [
        {
            "buffer" : 0,
            "byteLength" : 28452,
            "byteOffset" : 0
        },
        {
            "buffer" : 0,
            "byteLength" : 28452,
            "byteOffset" : 28452
        },
        {
            "buffer" : 0,
            "byteLength" : 18968,
            "byteOffset" : 56904
        },
        {
            "buffer" : 0,
            "byteLength" : 8430,
            "byteOffset" : 75872
        }
    ],
    "buffers" : [
        {
            "byteLength" : 84304,
            "uri" : "data:application/octet-stream;base64,"
        }
    ]
}
